<svg xmlns="http://www.w3.org/2000/svg" width="3443.4927" height="571.3725" viewBox="0 0 3443.4927 571.3725"><defs><clipPath id="a" clipPathUnits="userSpaceOnUse"><path d="M0 827.362h2861.353V0H0Z"/></clipPath></defs><path fill="none" d="M154.627 206.08h2582.62v461.602H154.626Z" style="fill:#fffceb;fill-opacity:0;fill-rule:nonzero;stroke:none;stroke-width:.709628" transform="matrix(1.33333 0 0 -1.33333 -206.169 846.146)"/><path d="M646.715 231.794h-77.341v402.815h77.341z" style="fill:#f680b3;fill-opacity:1;fill-rule:nonzero;stroke:none" transform="matrix(1.33333 0 0 -1.33333 -206.169 846.146)"/><path d="M0 0h-213.729v-76.052h67.586v-326.763h77.341v326.763H0Z" style="fill:#f680b3;fill-opacity:1;fill-rule:nonzero;stroke:none" transform="matrix(1.33333 0 0 -1.33333 1305.201 0)"/><g clip-path="url(#a)" transform="matrix(1.33333 0 0 -1.33333 -206.169 846.146)"><path d="M0 0v-76.221h-31.577c-5.298 0-47.184-3.174-47.184-49.362 0-32.666 28.31-47.184 46.095-47.184 39.199 0 48.636 35.316 48.636 43.555v116.049c0 55.718 28.825 192.1 198.9 192.1v-75.858C110.521 103.079 93.955 26.695 93.955.726H214.87v-76.584H91.79v-52.991c0-52.35-43.78-120.139-122.278-120.139-67.243 0-124.715 50-124.715 127.761 0 22.543 10.961 70.753 51.035 97.635C-64.679 2.898-38.953 0 0 0" style="fill:#f680b3;fill-opacity:1;fill-rule:nonzero;stroke:none" transform="translate(309.83 455.068)"/><path d="M0 0v402.211h-75.819V224.52h-32.446c-27.089 0-64.241 22.412-64.241 65.077v113.218h-76.375V289.597c0-60.607 46.683-140.939 146.245-140.939h26.817V0Z" style="fill:#f680b3;fill-opacity:1;fill-rule:nonzero;stroke:none" transform="translate(1410.237 231.794)"/><path d="M0 0v147.416h123.08V224H2.165c0 25.969 16.566 102.353 120.915 102.353v75.858c-170.075 0-198.9-136.382-198.9-192.1V0Z" style="fill:#f680b3;fill-opacity:1;fill-rule:nonzero;stroke:none" transform="translate(762.726 231.794)"/><path d="M1813.75 231.794h-77.34v402.815h77.34z" style="fill:#f680b3;fill-opacity:1;fill-rule:nonzero;stroke:none"/><path d="M0 0h-213.729v-76.052h67.586v-326.763h77.341v326.763H0Z" style="fill:#f680b3;fill-opacity:1;fill-rule:nonzero;stroke:none" transform="translate(2297.363 634.61)"/><path d="M0 0v210.111c0 55.718 28.825 192.1 198.9 192.1v-75.858C94.551 326.353 77.985 249.969 77.985 224H198.9v-76.584H75.82V0Z" style="fill:#f680b3;fill-opacity:1;fill-rule:nonzero;stroke:none" transform="translate(1502.434 231.794)"/><path d="M0 0c-39.49 26.491-65.215 23.592-104.168 23.592v-76.221h31.577c5.298 0 47.184-3.174 47.184-49.362 0-32.666-28.311-47.184-46.095-47.184-39.199 0-48.636 35.316-48.636 43.555v308.149h-75.82V24.838h-32.445c-27.09 0-64.241 22.412-64.241 65.077v113.218h-76.376V89.915c0-60.607 46.684-140.938 146.246-140.938h26.816v-54.234c0-52.35 43.78-120.139 122.278-120.139 67.243 0 124.714 50 124.714 127.761C51.034-75.092 40.074-26.882 0 0" style="fill:#f680b3;fill-opacity:1;fill-rule:nonzero;stroke:none" transform="translate(2686.212 431.476)"/><path d="M0 0v147.416h123.08V224H2.166c0 25.969 16.565 102.353 120.914 102.353v75.858c-170.075 0-198.899-136.382-198.899-192.1V0Z" style="fill:#f680b3;fill-opacity:1;fill-rule:nonzero;stroke:none" transform="translate(1928.161 231.794)"/></g></svg>